<?xml version="1.0" encoding="UTF-8"?>
<svg id="Capa_2" data-name="Capa 2" xmlns="http://www.w3.org/2000/svg" viewBox="0 0 64.35 40.47">
  <defs>
    <style>
      .cls-1 {
        fill: #eef2e7;
      }
    </style>
  </defs>
  <g id="Capa_1-2" data-name="Capa 1">
    <path class="cls-1" d="M61.21,20.25c1.02-1.11,1.79-2.36,2.33-3.76,.54-1.39,.81-2.84,.81-4.35,0-1.67-.32-3.25-.95-4.73-.63-1.47-1.5-2.76-2.6-3.86-1.1-1.11-2.39-1.97-3.87-2.6-1.47-.63-3.05-.95-4.73-.95H27.92c-1.49,0-2.91,.27-4.27,.79-1.37,.53-2.6,1.3-3.69,2.3-1.1-1-2.33-1.77-3.7-2.3-1.38-.52-2.8-.79-4.29-.79-1.65,0-3.2,.31-4.66,.93-1.46,.63-2.73,1.48-3.81,2.56S1.56,5.85,.94,7.31c-.63,1.45-.94,3.01-.94,4.66v24.51c0,2.2,1.79,3.99,4,3.99,1.1,0,2.1-.45,2.82-1.17s1.17-1.72,1.17-2.82V11.97c0-.56,.1-1.08,.31-1.56,.2-.48,.48-.9,.85-1.27s.78-.64,1.26-.85c.49-.2,1-.3,1.56-.3s1.08,.1,1.56,.3c.48,.21,.9,.49,1.27,.85,.36,.37,.64,.79,.85,1.27,.2,.48,.3,1,.3,1.56v.87c0,2.21,1.79,4,4,4,1.1,0,2.1-.45,2.82-1.17,.72-.72,1.17-1.72,1.17-2.83v-.87c0-.56,.1-1.08,.31-1.56,.2-.48,.48-.9,.84-1.27,.37-.36,.79-.64,1.27-.85,.48-.2,1-.3,1.56-.3s1.07,.1,1.56,.3c.48,.21,.9,.49,1.26,.85s.65,.79,.87,1.27c.21,.48,.32,1,.32,1.56v24.51c0,2.2,1.79,3.99,4,3.99h16.27c1.68,0,3.26-.32,4.73-.95,1.48-.63,2.77-1.49,3.87-2.6,1.1-1.1,1.97-2.39,2.6-3.86,.63-1.48,.95-3.06,.95-4.73,0-1.51-.27-2.95-.81-4.34-.54-1.38-1.31-2.63-2.33-3.74Zm-9.01,4.04c.57,0,1.09,.1,1.58,.31,.49,.21,.92,.49,1.29,.86s.65,.79,.86,1.28c.21,.49,.31,1.02,.31,1.59s-.1,1.09-.31,1.58c-.21,.49-.49,.91-.86,1.28s-.8,.66-1.29,.88c-.49,.21-1.01,.32-1.58,.32h-9.3c-1.66,0-3.01-1.35-3.01-3.01V11.97c0-1.35-.21-2.64-.64-3.86h12.95c.57,0,1.09,.1,1.58,.31,.49,.2,.92,.49,1.29,.86s.65,.79,.86,1.28c.21,.49,.31,1.02,.31,1.58s-.1,1.1-.31,1.59c-.21,.49-.49,.91-.86,1.28s-.8,.65-1.29,.86c-.49,.21-1.01,.31-1.58,.31h-.69c-2.24,0-4.05,1.82-4.05,4.05h0c0,2.24,1.82,4.05,4.05,4.05h.69Z"/>
  </g>
</svg>